<mxfile host="app.diagrams.net" agent="Mozilla/5.0 (Windows NT 10.0; Win64; x64; rv:133.0) Gecko/20100101 Firefox/133.0" version="25.0.1">
  <diagram name="Страница — 1" id="RTeZ2iG1aW9Ky8l8PpuF">
    <mxGraphModel dx="1687" dy="920" grid="1" gridSize="10" guides="1" tooltips="1" connect="1" arrows="1" fold="1" page="1" pageScale="1" pageWidth="827" pageHeight="1169" math="0" shadow="0">
      <root>
        <mxCell id="0" />
        <mxCell id="1" parent="0" />
        <mxCell id="N0myKCC8IQFKAMIZWO1Z-46" style="edgeStyle=orthogonalEdgeStyle;rounded=0;orthogonalLoop=1;jettySize=auto;html=1;exitX=0.5;exitY=1;exitDx=0;exitDy=0;entryX=0.5;entryY=0;entryDx=0;entryDy=0;" edge="1" parent="1" source="N0myKCC8IQFKAMIZWO1Z-2" target="N0myKCC8IQFKAMIZWO1Z-3">
          <mxGeometry relative="1" as="geometry" />
        </mxCell>
        <mxCell id="N0myKCC8IQFKAMIZWO1Z-2" value="Начало" style="rounded=1;whiteSpace=wrap;html=1;" vertex="1" parent="1">
          <mxGeometry x="692.5" y="30" width="70" height="30" as="geometry" />
        </mxCell>
        <mxCell id="N0myKCC8IQFKAMIZWO1Z-47" style="edgeStyle=orthogonalEdgeStyle;rounded=0;orthogonalLoop=1;jettySize=auto;html=1;exitX=0.5;exitY=1;exitDx=0;exitDy=0;entryX=0.5;entryY=0;entryDx=0;entryDy=0;" edge="1" parent="1" source="N0myKCC8IQFKAMIZWO1Z-3" target="N0myKCC8IQFKAMIZWO1Z-4">
          <mxGeometry relative="1" as="geometry" />
        </mxCell>
        <mxCell id="N0myKCC8IQFKAMIZWO1Z-3" value="Отправка отчёта руководителю для согласования с заказчиком проекта по внутренней корпоративной почте" style="rounded=0;whiteSpace=wrap;html=1;" vertex="1" parent="1">
          <mxGeometry x="630" y="90" width="195" height="60" as="geometry" />
        </mxCell>
        <mxCell id="N0myKCC8IQFKAMIZWO1Z-48" style="edgeStyle=orthogonalEdgeStyle;rounded=0;orthogonalLoop=1;jettySize=auto;html=1;exitX=0.5;exitY=1;exitDx=0;exitDy=0;entryX=0.5;entryY=0;entryDx=0;entryDy=0;" edge="1" parent="1" source="N0myKCC8IQFKAMIZWO1Z-4" target="N0myKCC8IQFKAMIZWO1Z-5">
          <mxGeometry relative="1" as="geometry" />
        </mxCell>
        <mxCell id="N0myKCC8IQFKAMIZWO1Z-4" value="Проверка корректности отчёта в соответствии с требованиями договора" style="rounded=0;whiteSpace=wrap;html=1;" vertex="1" parent="1">
          <mxGeometry x="648.5" y="180" width="158" height="60" as="geometry" />
        </mxCell>
        <mxCell id="N0myKCC8IQFKAMIZWO1Z-7" style="edgeStyle=orthogonalEdgeStyle;rounded=0;orthogonalLoop=1;jettySize=auto;html=1;exitX=1;exitY=0.5;exitDx=0;exitDy=0;" edge="1" parent="1" source="N0myKCC8IQFKAMIZWO1Z-5" target="N0myKCC8IQFKAMIZWO1Z-6">
          <mxGeometry relative="1" as="geometry" />
        </mxCell>
        <mxCell id="N0myKCC8IQFKAMIZWO1Z-9" value="Нет" style="edgeLabel;html=1;align=center;verticalAlign=middle;resizable=0;points=[];" vertex="1" connectable="0" parent="N0myKCC8IQFKAMIZWO1Z-7">
          <mxGeometry x="-0.1701" y="1" relative="1" as="geometry">
            <mxPoint as="offset" />
          </mxGeometry>
        </mxCell>
        <mxCell id="N0myKCC8IQFKAMIZWO1Z-12" style="edgeStyle=orthogonalEdgeStyle;rounded=0;orthogonalLoop=1;jettySize=auto;html=1;exitX=0;exitY=0.5;exitDx=0;exitDy=0;" edge="1" parent="1" source="N0myKCC8IQFKAMIZWO1Z-5" target="N0myKCC8IQFKAMIZWO1Z-10">
          <mxGeometry relative="1" as="geometry" />
        </mxCell>
        <mxCell id="N0myKCC8IQFKAMIZWO1Z-13" value="Да" style="edgeLabel;html=1;align=center;verticalAlign=middle;resizable=0;points=[];" vertex="1" connectable="0" parent="N0myKCC8IQFKAMIZWO1Z-12">
          <mxGeometry x="-0.0234" y="1" relative="1" as="geometry">
            <mxPoint as="offset" />
          </mxGeometry>
        </mxCell>
        <mxCell id="N0myKCC8IQFKAMIZWO1Z-5" value="Всё ли корректно?" style="rhombus;whiteSpace=wrap;html=1;" vertex="1" parent="1">
          <mxGeometry x="677.5" y="270" width="100" height="80" as="geometry" />
        </mxCell>
        <mxCell id="N0myKCC8IQFKAMIZWO1Z-8" style="edgeStyle=orthogonalEdgeStyle;rounded=0;orthogonalLoop=1;jettySize=auto;html=1;exitX=0.5;exitY=0;exitDx=0;exitDy=0;entryX=1;entryY=0.5;entryDx=0;entryDy=0;" edge="1" parent="1" source="N0myKCC8IQFKAMIZWO1Z-6" target="N0myKCC8IQFKAMIZWO1Z-2">
          <mxGeometry relative="1" as="geometry" />
        </mxCell>
        <mxCell id="N0myKCC8IQFKAMIZWO1Z-6" value="Возврат отчёта автору для исправления" style="rounded=0;whiteSpace=wrap;html=1;" vertex="1" parent="1">
          <mxGeometry x="830" y="280" width="120" height="60" as="geometry" />
        </mxCell>
        <mxCell id="N0myKCC8IQFKAMIZWO1Z-49" style="edgeStyle=orthogonalEdgeStyle;rounded=0;orthogonalLoop=1;jettySize=auto;html=1;exitX=0.5;exitY=1;exitDx=0;exitDy=0;entryX=0.5;entryY=0;entryDx=0;entryDy=0;" edge="1" parent="1" source="N0myKCC8IQFKAMIZWO1Z-10" target="N0myKCC8IQFKAMIZWO1Z-14">
          <mxGeometry relative="1" as="geometry" />
        </mxCell>
        <mxCell id="N0myKCC8IQFKAMIZWO1Z-10" value="Отправка документа в электронном виде согласующим лицам со стороны заказчика" style="rounded=0;whiteSpace=wrap;html=1;" vertex="1" parent="1">
          <mxGeometry x="509.5" y="360" width="139" height="60" as="geometry" />
        </mxCell>
        <mxCell id="N0myKCC8IQFKAMIZWO1Z-16" style="edgeStyle=orthogonalEdgeStyle;rounded=0;orthogonalLoop=1;jettySize=auto;html=1;exitX=0.5;exitY=1;exitDx=0;exitDy=0;" edge="1" parent="1" source="N0myKCC8IQFKAMIZWO1Z-14" target="N0myKCC8IQFKAMIZWO1Z-15">
          <mxGeometry relative="1" as="geometry" />
        </mxCell>
        <mxCell id="N0myKCC8IQFKAMIZWO1Z-14" value="Отправка копии электронного письма автору отчёта" style="rounded=0;whiteSpace=wrap;html=1;" vertex="1" parent="1">
          <mxGeometry x="519" y="450" width="120" height="60" as="geometry" />
        </mxCell>
        <mxCell id="N0myKCC8IQFKAMIZWO1Z-19" style="edgeStyle=orthogonalEdgeStyle;rounded=0;orthogonalLoop=1;jettySize=auto;html=1;exitX=0;exitY=0.5;exitDx=0;exitDy=0;" edge="1" parent="1" source="N0myKCC8IQFKAMIZWO1Z-15" target="N0myKCC8IQFKAMIZWO1Z-17">
          <mxGeometry relative="1" as="geometry" />
        </mxCell>
        <mxCell id="N0myKCC8IQFKAMIZWO1Z-21" value="Да" style="edgeLabel;html=1;align=center;verticalAlign=middle;resizable=0;points=[];" vertex="1" connectable="0" parent="N0myKCC8IQFKAMIZWO1Z-19">
          <mxGeometry x="0.2577" relative="1" as="geometry">
            <mxPoint as="offset" />
          </mxGeometry>
        </mxCell>
        <mxCell id="N0myKCC8IQFKAMIZWO1Z-20" style="edgeStyle=orthogonalEdgeStyle;rounded=0;orthogonalLoop=1;jettySize=auto;html=1;exitX=1;exitY=0.5;exitDx=0;exitDy=0;entryX=0.5;entryY=0;entryDx=0;entryDy=0;" edge="1" parent="1" source="N0myKCC8IQFKAMIZWO1Z-15" target="N0myKCC8IQFKAMIZWO1Z-18">
          <mxGeometry relative="1" as="geometry" />
        </mxCell>
        <mxCell id="N0myKCC8IQFKAMIZWO1Z-22" value="Нет" style="edgeLabel;html=1;align=center;verticalAlign=middle;resizable=0;points=[];" vertex="1" connectable="0" parent="N0myKCC8IQFKAMIZWO1Z-20">
          <mxGeometry x="-0.5375" y="-2" relative="1" as="geometry">
            <mxPoint as="offset" />
          </mxGeometry>
        </mxCell>
        <mxCell id="N0myKCC8IQFKAMIZWO1Z-15" value="Указан ли срок рассмотрения отчёта?" style="rhombus;whiteSpace=wrap;html=1;" vertex="1" parent="1">
          <mxGeometry x="667.5" y="550" width="120" height="60" as="geometry" />
        </mxCell>
        <mxCell id="N0myKCC8IQFKAMIZWO1Z-24" style="edgeStyle=orthogonalEdgeStyle;rounded=0;orthogonalLoop=1;jettySize=auto;html=1;exitX=0.5;exitY=1;exitDx=0;exitDy=0;entryX=0.5;entryY=0;entryDx=0;entryDy=0;" edge="1" parent="1" source="N0myKCC8IQFKAMIZWO1Z-17" target="N0myKCC8IQFKAMIZWO1Z-23">
          <mxGeometry relative="1" as="geometry" />
        </mxCell>
        <mxCell id="N0myKCC8IQFKAMIZWO1Z-17" value="Отчёт рассматривается согласующими лицам со стороны заказчика в срок, не превышающий количества дней, указанных в договоре" style="rounded=0;whiteSpace=wrap;html=1;" vertex="1" parent="1">
          <mxGeometry x="489" y="610" width="180" height="110" as="geometry" />
        </mxCell>
        <mxCell id="N0myKCC8IQFKAMIZWO1Z-25" style="edgeStyle=orthogonalEdgeStyle;rounded=0;orthogonalLoop=1;jettySize=auto;html=1;exitX=0.5;exitY=1;exitDx=0;exitDy=0;entryX=0.5;entryY=0;entryDx=0;entryDy=0;" edge="1" parent="1" source="N0myKCC8IQFKAMIZWO1Z-18" target="N0myKCC8IQFKAMIZWO1Z-23">
          <mxGeometry relative="1" as="geometry" />
        </mxCell>
        <mxCell id="N0myKCC8IQFKAMIZWO1Z-18" value="Отчёт рассматривается согласующими лицами со стороны заказчика должны в срок, не превышающий семи рабочих дней" style="rounded=0;whiteSpace=wrap;html=1;" vertex="1" parent="1">
          <mxGeometry x="805" y="610" width="170" height="110" as="geometry" />
        </mxCell>
        <mxCell id="N0myKCC8IQFKAMIZWO1Z-27" style="edgeStyle=orthogonalEdgeStyle;rounded=0;orthogonalLoop=1;jettySize=auto;html=1;exitX=0.5;exitY=1;exitDx=0;exitDy=0;entryX=0.5;entryY=0;entryDx=0;entryDy=0;" edge="1" parent="1" source="N0myKCC8IQFKAMIZWO1Z-23" target="N0myKCC8IQFKAMIZWO1Z-26">
          <mxGeometry relative="1" as="geometry" />
        </mxCell>
        <mxCell id="N0myKCC8IQFKAMIZWO1Z-23" value="Отчёт с замечаниями или визами согласования возваращается от заказчика руководителю проекта в электронном виде" style="rounded=0;whiteSpace=wrap;html=1;" vertex="1" parent="1">
          <mxGeometry x="648.5" y="760" width="158" height="90" as="geometry" />
        </mxCell>
        <mxCell id="N0myKCC8IQFKAMIZWO1Z-30" style="edgeStyle=orthogonalEdgeStyle;rounded=0;orthogonalLoop=1;jettySize=auto;html=1;exitX=0.5;exitY=1;exitDx=0;exitDy=0;entryX=0.5;entryY=0;entryDx=0;entryDy=0;" edge="1" parent="1" source="N0myKCC8IQFKAMIZWO1Z-26" target="N0myKCC8IQFKAMIZWO1Z-28">
          <mxGeometry relative="1" as="geometry" />
        </mxCell>
        <mxCell id="N0myKCC8IQFKAMIZWO1Z-26" value="Сообщать автору отчёта о результате согласования" style="rounded=0;whiteSpace=wrap;html=1;" vertex="1" parent="1">
          <mxGeometry x="668" y="880" width="120" height="60" as="geometry" />
        </mxCell>
        <mxCell id="N0myKCC8IQFKAMIZWO1Z-33" style="edgeStyle=orthogonalEdgeStyle;rounded=0;orthogonalLoop=1;jettySize=auto;html=1;exitX=0;exitY=0.5;exitDx=0;exitDy=0;entryX=0.5;entryY=0;entryDx=0;entryDy=0;" edge="1" parent="1" source="N0myKCC8IQFKAMIZWO1Z-28" target="N0myKCC8IQFKAMIZWO1Z-31">
          <mxGeometry relative="1" as="geometry" />
        </mxCell>
        <mxCell id="N0myKCC8IQFKAMIZWO1Z-36" value="Да" style="edgeLabel;html=1;align=center;verticalAlign=middle;resizable=0;points=[];" vertex="1" connectable="0" parent="N0myKCC8IQFKAMIZWO1Z-33">
          <mxGeometry x="-0.2747" y="1" relative="1" as="geometry">
            <mxPoint as="offset" />
          </mxGeometry>
        </mxCell>
        <mxCell id="N0myKCC8IQFKAMIZWO1Z-34" style="edgeStyle=orthogonalEdgeStyle;rounded=0;orthogonalLoop=1;jettySize=auto;html=1;exitX=1;exitY=0.5;exitDx=0;exitDy=0;entryX=0.5;entryY=0;entryDx=0;entryDy=0;" edge="1" parent="1" source="N0myKCC8IQFKAMIZWO1Z-28" target="N0myKCC8IQFKAMIZWO1Z-32">
          <mxGeometry relative="1" as="geometry" />
        </mxCell>
        <mxCell id="N0myKCC8IQFKAMIZWO1Z-35" value="Нет" style="edgeLabel;html=1;align=center;verticalAlign=middle;resizable=0;points=[];" vertex="1" connectable="0" parent="N0myKCC8IQFKAMIZWO1Z-34">
          <mxGeometry x="-0.1831" y="-1" relative="1" as="geometry">
            <mxPoint as="offset" />
          </mxGeometry>
        </mxCell>
        <mxCell id="N0myKCC8IQFKAMIZWO1Z-28" value="Есть замечания?" style="rhombus;whiteSpace=wrap;html=1;" vertex="1" parent="1">
          <mxGeometry x="687.5" y="970" width="80" height="50" as="geometry" />
        </mxCell>
        <mxCell id="N0myKCC8IQFKAMIZWO1Z-42" style="edgeStyle=orthogonalEdgeStyle;rounded=0;orthogonalLoop=1;jettySize=auto;html=1;exitX=0.5;exitY=1;exitDx=0;exitDy=0;entryX=0.5;entryY=0;entryDx=0;entryDy=0;" edge="1" parent="1" source="N0myKCC8IQFKAMIZWO1Z-31" target="N0myKCC8IQFKAMIZWO1Z-40">
          <mxGeometry relative="1" as="geometry" />
        </mxCell>
        <mxCell id="N0myKCC8IQFKAMIZWO1Z-31" value="Передача отчёта на доработку автору" style="rounded=0;whiteSpace=wrap;html=1;" vertex="1" parent="1">
          <mxGeometry x="529" y="1020" width="120" height="60" as="geometry" />
        </mxCell>
        <mxCell id="N0myKCC8IQFKAMIZWO1Z-39" style="edgeStyle=orthogonalEdgeStyle;rounded=0;orthogonalLoop=1;jettySize=auto;html=1;exitX=0.5;exitY=1;exitDx=0;exitDy=0;entryX=0.5;entryY=0;entryDx=0;entryDy=0;" edge="1" parent="1" source="N0myKCC8IQFKAMIZWO1Z-32" target="N0myKCC8IQFKAMIZWO1Z-38">
          <mxGeometry relative="1" as="geometry" />
        </mxCell>
        <mxCell id="N0myKCC8IQFKAMIZWO1Z-32" value="Передача отчёта на подпись директору компании" style="rounded=0;whiteSpace=wrap;html=1;" vertex="1" parent="1">
          <mxGeometry x="806.5" y="1020" width="120" height="60" as="geometry" />
        </mxCell>
        <mxCell id="N0myKCC8IQFKAMIZWO1Z-38" value="Конец" style="rounded=1;whiteSpace=wrap;html=1;" vertex="1" parent="1">
          <mxGeometry x="834" y="1109" width="65" height="31" as="geometry" />
        </mxCell>
        <mxCell id="N0myKCC8IQFKAMIZWO1Z-40" value="Устранение всех замечаний, полученных от согласующих лиц со стороны заказчика в течении пяти рабочих дней" style="rounded=0;whiteSpace=wrap;html=1;" vertex="1" parent="1">
          <mxGeometry x="499" y="1109" width="180" height="60" as="geometry" />
        </mxCell>
        <mxCell id="N0myKCC8IQFKAMIZWO1Z-45" style="edgeStyle=orthogonalEdgeStyle;rounded=0;orthogonalLoop=1;jettySize=auto;html=1;exitX=0.5;exitY=1;exitDx=0;exitDy=0;entryX=0;entryY=0.5;entryDx=0;entryDy=0;" edge="1" parent="1" source="N0myKCC8IQFKAMIZWO1Z-41" target="N0myKCC8IQFKAMIZWO1Z-3">
          <mxGeometry relative="1" as="geometry">
            <Array as="points">
              <mxPoint x="593" y="1280" />
              <mxPoint x="460" y="1280" />
              <mxPoint x="460" y="120" />
            </Array>
          </mxGeometry>
        </mxCell>
        <mxCell id="N0myKCC8IQFKAMIZWO1Z-41" value="Подготовлена новая версия отчёта, где в приложении приведён лист замечаний" style="rounded=0;whiteSpace=wrap;html=1;" vertex="1" parent="1">
          <mxGeometry x="517.5" y="1200" width="150" height="60" as="geometry" />
        </mxCell>
        <mxCell id="N0myKCC8IQFKAMIZWO1Z-44" style="edgeStyle=orthogonalEdgeStyle;rounded=0;orthogonalLoop=1;jettySize=auto;html=1;exitX=0.5;exitY=1;exitDx=0;exitDy=0;entryX=0.477;entryY=-0.021;entryDx=0;entryDy=0;entryPerimeter=0;" edge="1" parent="1" source="N0myKCC8IQFKAMIZWO1Z-40" target="N0myKCC8IQFKAMIZWO1Z-41">
          <mxGeometry relative="1" as="geometry" />
        </mxCell>
      </root>
    </mxGraphModel>
  </diagram>
</mxfile>
